<svg viewBox="0 0 1024 1024" xmlns="http://www.w3.org/2000/svg" role="img" aria-label="EXV logo">
  <path d="M512 512m-512 0a512 512 0 1 0 1024 0 512 512 0 1 0-1024 0Z" fill="#A41F35"/>
  <path d="M521.481481 521.481481m-293.925925 0a293.925926 293.925926 0 1 0 587.851851 0 293.925926 293.925926 0 1 0-587.851851 0Z" fill="#FFFFFF"/>
  <path d="M371.446519 252.245333L407.552 208.289185c126.426074 103.860148 206.336 187.979852 240.355556 254.350222 34.228148 66.74963 52.091259 173.909333 54.859851 322.74963l-56.888888 1.042963c-2.616889-140.894815-19.228444-240.583111-48.583112-297.851259-29.544296-57.628444-105.016889-137.064296-225.848888-236.335408z" fill="#A41F35"/>
  <path d="M707.109926 240.658963l9.690074 56.073481c-119.921778 20.745481-228.200296 66.256593-302.705778 137.481482C340.992 504.111407 308.906667 613.56563 307.2 725.902222l-56.888889-0.853333c1.896296-127.184593 40.049778-251.240296 124.472889-331.946667 83.019852-79.378963 201.671111-129.820444 332.325926-152.443259z" fill="#A41F35"/>
  <path d="M231.841185 379.20237l46.421334-32.881777c67.26163 94.985481 137.898667 157.278815 211.512888 187.619555 74.107259 30.549333 205.596444 37.129481 338.716445 23.324445L834.37037 613.831111c-141.691259 14.715259-282.168889 7.376593-366.269629-27.287704C383.488 551.670519 304.867556 482.322963 231.822222 379.20237z" fill="#A41F35"/>
  <path d="M617.775407 595.968L647.073185 644.740741c-50.270815 30.189037-86.224593 55.789037-107.463111 76.250074-21.295407 20.517926-49.246815 56.471704-83.247407 107.482074l-47.350519-31.55437c36.086519-54.120296 66.275556-92.956444 91.136-116.906667 24.917333-24.007111 64-51.825778 117.627259-84.043852z" fill="#A41F35"/>
  <g transform="translate(609.04 584) scale(0.4)">
    <circle cx="512" cy="512" r="430" fill="#FFFFFF"/>
    <path d="M512 112L808 224v224c0 201.6-117.6 361.6-296 464-178.4-102.4-296-262.4-296-464V224L512 112z" fill="#A41F35"/>
    <path d="M512 192L736 276v168c0 153.6-83.2 280-224 368-140.8-88-224-214.4-224-368V276L512 192z" fill="#FFFFFF"/>
    <path d="M392 512l82 82 176-194" fill="none" stroke="#A41F35" stroke-width="72" stroke-linecap="round" stroke-linejoin="round"/>
  </g>
</svg>
